<svg xmlns="http://www.w3.org/2000/svg" xmlns:xlink="http://www.w3.org/1999/xlink" version="1.1" x="0px" y="0px" viewBox="0 0 100 125" enable-background="new 0 0 100 100" xml:space="preserve"><path d="M61.2,66.5c-0.6-6.8-6-12.2-12.9-12.8v-5.2h-2.6v5.2c-6.8,0.6-12.2,6-12.9,12.8H21.2v2.6h11.7c0.6,6.8,6,12.2,12.9,12.9v5.2  h2.6V82c6.8-0.6,12.2-6,12.9-12.9h11.7v-2.6H61.2z M45.7,79.4c-5.4-0.6-9.7-4.9-10.3-10.3h10.3V79.4z M45.7,66.5H35.5  c0.6-5.4,4.9-9.7,10.3-10.3V66.5z M48.3,79.4V69.1h10.3C58,74.5,53.7,78.8,48.3,79.4z M48.3,66.5V56.3c5.4,0.6,9.7,4.9,10.3,10.3  H48.3z"/><path d="M94.1,22.5L84.2,10c-0.3-0.4-0.9-0.6-1.4-0.4c-1.3,0.5-28.5,9.8-41.1,14.5l7-7.9c0.3-0.4,0.4-0.9,0.2-1.3  c-0.2-0.5-0.6-0.8-1-0.8l-6.7-0.8c-0.4-0.1-0.8,0.1-1.1,0.4L27.6,26.2c-4.1,0.4-8.8,1.3-12.2,3.4c-5.2,3.2-9.5,10.3-9.7,16.1  c0,0.7,0.5,1.3,1.2,1.3c0.1,0,2,0.2,4.3,0.2c1.1,0.7,3.5,2,6.1,2c0.7,0,1.4-0.1,2.1-0.3c2.2-0.7,4-2.4,5.3-5.1c2.6-1,5.6-2.3,9-3.8  l44.8,9.6c0.1,0,0.2,0,0.3,0c0.5,0,0.9-0.3,1.1-0.7c0.3-0.5,0.2-1.1-0.2-1.5l-6.5-6.2c-0.1-0.1-0.3-0.2-0.5-0.3l-22.6-7.8  c8.1-3.5,16.2-6.9,22.1-9.5L72,25.4v0.1c0,0.1,0,0.3,0,0.4c0.1,0.5,0.5,0.9,1,1l5.2,1.1c0.1,0,0.2,0,0.3,0c0.6,0,1.1-0.4,1.3-1  l1.5-5.7l0,0l4.6,5.7c0.4,0.5,1,0.6,1.6,0.3l6.3-3c0.3-0.2,0.6-0.5,0.7-0.9C94.4,23.2,94.3,22.8,94.1,22.5z M31.5,25.9l10-10.1  l3.6,0.4l-8.5,9.6l-0.7,1c0,0.1-3.4-0.2-5.5,0.2L31.5,25.9z M19,47.4c-1.4,0.4-2.8,0.2-4.1-0.2c1-0.1,1.8-0.2,2.5-0.4  c0.5-0.1,2.2-0.8,4.8-1.9C21.4,46.2,20.3,47,19,47.4z M78.7,20.9l-1.1,4.4l-2.7-0.6l0.7-3.3l3.5-1.9L78.7,20.9z M87.2,24.7l-5.6-6.9  c-0.1-0.1-0.2-0.2-0.3-0.3c0,0-0.1-0.1-0.1-0.1c-0.1-0.1-0.2-0.1-0.3-0.1c-0.1,0-0.2-0.1-0.3-0.1c-0.1,0-0.2,0-0.2,0  c-0.1,0-0.3,0.1-0.4,0.1c-2.7,1.3-18.3,8.1-33.3,14.5l-4.7-1.6c-0.7-0.2-1.4,0.1-1.6,0.8c-0.1,0.3-0.1,0.7,0.1,1  c0.1,0.3,0.4,0.5,0.7,0.6l2.1,0.7l3.6,1.3l25,8.7l3,2.9L38,38.4h0l-4.4-0.9h0L31.4,37l-1.5-0.3c-0.7-0.2-1.4,0.3-1.5,1  c-0.1,0.7,0.3,1.4,1,1.5l0.1,0c-6.8,2.9-11.8,4.9-12.6,5.1c-1,0.3-2.6,0.4-4.6,0.4c-1.2,0-2.3,0-3.2-0.1c-0.2,0-0.5-0.4-0.5-0.6  c0.8-4.6,4.2-9.8,8.2-12.2c4.8-2.9,12.7-3.4,16.9-3.4c2,0,3.1,0.1,3.1,0.1c0,0,0.9-0.1,1-0.2c6.6-2.9,39.2-14.1,44.9-16l8.3,10.5  L87.2,24.7z"/><text x="0" y="115" fill="#000000" font-size="5px" font-weight="bold" font-family="'Helvetica Neue', Helvetica, Arial-Unicode, Arial, Sans-serif">Created by Dan Hetteix</text><text x="0" y="120" fill="#000000" font-size="5px" font-weight="bold" font-family="'Helvetica Neue', Helvetica, Arial-Unicode, Arial, Sans-serif">from the Noun Project</text></svg>