<svg xmlns="http://www.w3.org/2000/svg" xmlns:xlink="http://www.w3.org/1999/xlink" version="1.1" x="0px" y="0px" viewBox="0 0 100 125" enable-background="new 0 0 100 100" xml:space="preserve"><g><g><g><path d="M50.001,95.669c-1.631,0-3.163-0.635-4.316-1.788L6.122,54.316C4.968,53.163,4.333,51.63,4.333,50     c0-1.631,0.635-3.164,1.789-4.316L45.686,6.119c1.152-1.152,2.686-1.787,4.316-1.787c1.63,0,3.163,0.635,4.316,1.787     l39.564,39.566c2.379,2.38,2.379,6.252,0,8.632L54.318,93.881C53.165,95.034,51.632,95.669,50.001,95.669z M50.002,6.038     c-1.175,0-2.279,0.458-3.11,1.288L7.328,46.89C6.497,47.721,6.039,48.825,6.039,50s0.458,2.279,1.289,3.11l39.564,39.564     c0.831,0.83,1.935,1.288,3.109,1.288c1.174,0,2.279-0.458,3.111-1.288L92.677,53.11c1.714-1.715,1.714-4.505,0-6.22L53.111,7.325     C52.281,6.495,51.177,6.038,50.002,6.038z"/></g></g><g><g><path d="M50.86,33.31c0,0,2.576-0.193,4.173-0.175s3.356,0.109,3.444,0.052c0.087-0.057,0.122-0.266,0.203-0.218     c0.366,0.843,0.87,0.854,1.237,0.689c0.368-0.166,0.371-0.859,0.188-0.976c0.274-0.003,0.456-0.089,0.579-0.173     c0.198-0.134,0.618-0.465,0.775-0.623c0.157-0.158,0.137-0.496-0.265-0.794c-0.401-0.299-1.967-1.45-3.269-1.471     c-1.302-0.02-6.398,1.441-6.991,1.508c-0.593,0.067-2.882,0.362-2.882,0.362s-10.187-7.336-10.491-7.523     c-0.303-0.187-0.453-0.155-0.707-0.129c-0.253,0.026-0.9,0.279-0.722,0.458c0.177,0.18,8.587,7.696,8.587,7.696     s-2.36,0.417-2.946,0.379c-0.586-0.038-1.133-0.03-1.713,0.164s-0.521,0.261-0.898,0.237c-0.376-0.024-0.676,0.062-0.676,0.062     l-0.066,0.375c0,0-1.191,0.554-1.343,0.628c-0.063,0.332,0.113,0.533,0.113,0.533l0.701,0.213l-2.744,1.821     c0,0,1.697,0.088,2.023-0.081s1.85-1.311,1.85-1.311l-0.035,2.184c0,0,0.504,0.011,0.844-0.051s0.512-0.114,0.512-0.114     l0.103,0.027l1.164,2.849l1.907-0.235l-2.14-4.992c0,0,2.333-0.333,3.503-0.553c1.17-0.219,1.823-0.241,1.908-0.256     c0.085-0.016,0.17-0.031,0.17-0.031s8.831,4.559,9.531,4.457c0.832-0.199,0.832-0.199,0.832-0.199l-0.028-0.212     C57.294,37.883,51.34,34.034,50.86,33.31z"/></g></g><g><g><g><path d="M45.896,50.219c0-1.531-1.241-2.771-2.771-2.771c-1.531,0-2.772,1.241-2.772,2.771c0,0.24,0.034,0.471,0.091,0.693      l-0.455,0.342l-0.175-0.818l-1.692,0.992l0.292,0.643l-0.735,0.326c-0.231,0.063-0.403,0.274-0.403,0.526      c0,0.302,0.245,0.547,0.547,0.547c0.087,0,0.167-0.022,0.241-0.059l0,0l0.992-0.466l0.35,0.934l1.867-1.226l-0.758-0.759      l0.268-0.2c0.491,0.777,1.355,1.296,2.343,1.296C44.655,52.991,45.896,51.75,45.896,50.219z M33.425,64.016      c0,0.469,0.281,0.87,0.683,1.05c0.004,0.008,0.006,0.019,0.013,0.021c0.174,0.058,4.656,1.496,5.939,1.846      s2.101-1.399,2.101-1.399s0.583-0.992,0.875-1.517c0.292-0.525,0.875-0.117,1.05,0.116c0.175,0.233,0.583,1.458,0.992,2.101      c0.408,0.642,0.292,1.517,0.175,2.566c-0.117,1.051-0.292,2.917-0.292,3.968c0,0.3,0.01,0.528,0.026,0.705      c-0.004,0.037-0.012,0.072-0.012,0.111c0,0.668,0.542,1.21,1.211,1.21c0.613,0,1.115-0.458,1.194-1.05      c0.005-0.015,0.015-0.028,0.016-0.044c0.044-0.525,0.481-6.592,0.249-7.176c-0.233-0.583-1.109-2.566-1.109-2.566h0.7      c0,0-0.467-1.459-0.875-2.217c-0.408-0.759-0.992-2.101-0.7-2.275c0.292-0.175,0.525-2.042,0.816-2.158      c0.292-0.117,1.167,0.524,1.984,1.107c0.816,0.584,1.517,0.292,1.75,0.176c0.223-0.111,1.37-0.956,2.032-1.692      c0.219-0.183,0.36-0.453,0.36-0.759c0-0.548-0.444-0.992-0.992-0.992c-0.303,0-0.569,0.139-0.751,0.352      c-0.329,0.336-0.745,0.971-1.057,1.283c-0.467,0.467-0.817-0.059-1.692-0.525s-1.925-1.225-2.625-1.634      c-0.7-0.408-1.05-0.816-2.566-0.816c0,0-2.976,0.467-4.376,0.991c-1.4,0.525-1.4,1.167-1.983,2.393      c-0.118,0.249-0.172,0.428-0.187,0.559c-0.023,0.093-0.04,0.187-0.04,0.286c0,0.642,0.521,1.163,1.163,1.163      c0.298,0,0.566-0.115,0.772-0.3c0.102-0.056,0.191-0.168,0.265-0.349c0.053-0.105,0.089-0.218,0.107-0.338      c0.381-1.396,0.588-1.774,1.885-1.604c0,0.292,0.583,1.75,0.817,2.392s0.175,0.934-0.233,1.575      c-0.408,0.642-1.692,2.976-1.692,2.976s0,0,0.7,0.116c0,0.525-0.233,0.934-0.758,0.759c-0.44-0.147-3.336-1.119-4.257-1.429      c-0.159-0.082-0.336-0.133-0.527-0.133C33.94,62.863,33.425,63.379,33.425,64.016z M38.777,60.399l-3.967-1.226l-1.809,2.159      l5.718,1.983L38.777,60.399z"/></g></g><g><path d="M70.724,52.8c1.637,0,2.964-1.327,2.964-2.964c0-1.637-1.327-2.963-2.964-2.963c-1.638,0-2.965,1.327-2.965,2.963     C67.759,51.473,69.086,52.8,70.724,52.8z M77.393,54.331c-0.127,0-0.25,0.019-0.367,0.049c-0.758,0.103-2.502,0.343-3.338,0.495     c-1.087,0.197-1.68,0.296-2.175,0c-0.435-0.262-2.944-1.905-3.531-2.29c-0.009-0.006-0.017-0.012-0.025-0.018     c-0.062-0.04-0.099-0.064-0.099-0.064c-0.177-0.108-0.364-0.185-0.559-0.235c-0.793-0.263-1.746-0.239-2.757,0.119     c-1.389,0.491-7.721,1.341-9.15,1.854c-0.556,0.115-1.012,0.555-1.119,1.146c-0.141,0.78,0.377,1.524,1.155,1.666     c0.214,0.038,0.424,0.025,0.621-0.026c0.689-0.104,4.085-0.525,6.249-0.814c-1.747,2.804-4.341,7.177-4.716,7.852     c-0.493,0.889-0.394,0.986-1.777,0.493c-1.183-0.422-3.655-1.591-4.531-1.89c-0.185-0.087-0.39-0.136-0.607-0.136     c-0.791,0-1.433,0.641-1.433,1.433c0,0.602,0.371,1.115,0.897,1.328c1.316,0.759,4.395,2.19,5.673,2.921     c1.384,0.79,2.669,0.888,3.36-0.1s2.173-3.26,2.173-3.26s1.186,3.062,0.889,3.557c-0.271,0.454-2.425,5.261-2.697,6.346     c-0.075,0.175-0.118,0.367-0.118,0.57c0,0.791,0.642,1.433,1.433,1.433c0.523,0,0.98-0.282,1.23-0.7     c0.482-0.561,0.877-1.423,1.536-2.61c0.988-1.778,1.68-2.964,2.075-3.754s0.691-0.493,0-2.766     c-0.692-2.272-1.482-3.26-0.692-4.545c0.791-1.285,1.978-2.865,1.978-2.865l2.37-2.668c0,0,1.384,1.285,3.458,0.988     c1.658-0.236,3.594-0.426,4.607-0.643c0.785-0.008,1.42-0.646,1.42-1.433C78.825,54.973,78.184,54.331,77.393,54.331z"/></g></g></g><text x="0" y="115" fill="#000000" font-size="5px" font-weight="bold" font-family="'Helvetica Neue', Helvetica, Arial-Unicode, Arial, Sans-serif">Created by Blaise Sewell</text><text x="0" y="120" fill="#000000" font-size="5px" font-weight="bold" font-family="'Helvetica Neue', Helvetica, Arial-Unicode, Arial, Sans-serif">from the Noun Project</text></svg>