<svg xmlns="http://www.w3.org/2000/svg" xmlns:xlink="http://www.w3.org/1999/xlink" version="1.1" x="0px" y="0px" viewBox="0 0 100 125" enable-background="new 0 0 100 100" xml:space="preserve"><path fill="#000000" d="M48.208,76.496l-18.8-0.452v-2.381l18.519-4.206c0,0-0.617-10.899-0.617-12.277  c0-0.112-0.596,2.47-0.596,2.47L0,55.946v-4.14l47.237-3.122c0-14.559-1.815-15.876-1.815-21.408c0-2.835,2.687-7.845,4.578-7.845  c1.892,0,4.578,5.01,4.578,7.845c0,5.532-1.815,6.85-1.815,21.408L100,51.807v4.14l-46.714,3.703c0,0-0.596-2.582-0.596-2.47  c0,1.378-0.617,12.277-0.617,12.277l18.52,4.206v2.381l-18.8,0.452l-0.318-2.021c0,0-0.157,2.593-0.554,4.472  c1.365-0.087,3.068-0.194,3.25-0.207c0.45-0.032,0.85,0.21,0.893,0.541c0.044,0.33-0.305,0.744-1.107,0.61  c-1.795-0.302-3.126-0.521-4.092-0.665c-0.663-0.1-0.871-0.71-0.899-0.871c-0.313-1.787-0.44-3.88-0.44-3.88L48.208,76.496z   M49.848,79.894c-0.974-0.114-2.26-0.321-3.958-0.651c-0.799-0.154-1.151,0.28-1.108,0.61c0.043,0.331,0.443,0.573,0.893,0.541  c0.2-0.014,2.228-0.143,3.634-0.231c0.19,0.603,0.418,1.005,0.691,1.005c0.207,0,0.388-0.23,0.546-0.603  C50.581,80.454,50.805,80.005,49.848,79.894z"/><text x="0" y="115" fill="#000000" font-size="5px" font-weight="bold" font-family="'Helvetica Neue', Helvetica, Arial-Unicode, Arial, Sans-serif">Created by Anthony Lui</text><text x="0" y="120" fill="#000000" font-size="5px" font-weight="bold" font-family="'Helvetica Neue', Helvetica, Arial-Unicode, Arial, Sans-serif">from the Noun Project</text></svg>