<svg xmlns="http://www.w3.org/2000/svg" xmlns:xlink="http://www.w3.org/1999/xlink" version="1.1" x="0px" y="0px" viewBox="0 0 100 125" enable-background="new 0 0 100 100" xml:space="preserve"><g display="none"><path display="inline" d="M68.997,43.007h-38c-1.104,0-2,0.896-2,2V93c0,1.105,0.896,2,2,2H31.7h36.594h0.703c1.105,0,2-0.895,2-2   V45.007C70.997,43.903,70.102,43.007,68.997,43.007z M67.075,87H32.997V47.007h34L67.075,87z M50,93.007c-1.104,0-2-0.895-2-2   c0-1.104,0.896-2,2-2c1.104,0,1.997,0.896,1.997,2C51.997,92.113,51.104,93.007,50,93.007z"/></g><g display="none"><path display="inline" d="M60.007,53.008H39.993c-1.101,0-1.993,0.896-1.993,2.001v37.998c0,1.104,0.892,2.001,1.993,2.001h20.015   c1.1,0,1.993-0.896,1.993-2.001V55.009C62,53.905,61.107,53.008,60.007,53.008z M58.014,57.01v29.997H41.985V57.01H58.014z    M50,93.007c-1.104,0-2-0.895-2-2c0-1.104,0.896-2,2-2c1.104,0,1.997,0.896,1.997,2C51.997,92.113,51.104,93.007,50,93.007z"/></g><g display="none"><path display="inline" d="M94.54,91.736l-9.543-11.729v-46c0-1.104-0.896-2-2-2h-66c-1.104,0-2,0.896-2,2v46L5.453,91.736   c-0.493,0.598-0.596,1.426-0.266,2.125c0.331,0.701,1.035,1.146,1.809,1.146h86.001c0.773,0,1.479-0.445,1.809-1.146   S95.032,92.333,94.54,91.736z M18.997,36.007h62v43h-62V36.007z M52.165,92.007c-0.855,0-3.482,0-4.338,0   c-1.601,0-2.896-1.311-2.983-2.977H13.012l4.985-6.023h64l5,6.023h-32C54.911,90.699,53.766,92.007,52.165,92.007z"/></g><g display="none"><g display="inline"><path d="M93.01,17.016H6.997c-1.105,0-2,0.896-2,2v61.958c0,1.105,0.895,2.033,2,2.033c0,0,28.439-0.006,28.984,0l-6.596,8.781    c-0.447,0.607-0.514,1.415-0.174,2.088s1.03,1.131,1.785,1.131h38c0.754,0,1.444-0.425,1.785-1.098    c0.34-0.673,0.272-1.48-0.175-2.088l-6.608-8.814c0.635-0.002,29.012,0,29.012,0c1.104,0,2-0.928,2-2.033V19.016    C95.01,17.911,94.114,17.016,93.01,17.016z M34.997,90.974l3.011-4h23.977l3.012,4H34.997z M90.997,79.007h-82v-8h82V79.007z     M91.01,66.974H8.997V21.016H91.01V66.974z"/><circle cx="49.918" cy="74.974" r="2"/></g></g><g display="none"><g display="inline"><path d="M72.997,11.019h-46L5,49.989l21.997,39.009h46L95,49.989L72.997,11.019z M71.163,80.039    c-3.501-8.224-11.655-14.031-21.166-14.031c-9.51,0-17.664,5.807-21.165,14.03L13.59,53.007h15.406c1.657,0,3-1.343,3-3    c0-1.657-1.343-3-3-3H13.573L28.749,20.12l7.643,13.375c0.554,0.969,1.566,1.512,2.607,1.512c0.504,0,1.016-0.127,1.485-0.396    c1.438-0.822,1.938-2.654,1.116-4.093l-7.714-13.5h32.22l-7.715,13.5c-0.822,1.438-0.322,3.271,1.116,4.093    c0.47,0.269,0.98,0.396,1.485,0.396c1.042,0,2.054-0.543,2.607-1.512l7.644-13.376l15.182,26.888h-15.43c-1.657,0-3,1.343-3,3    c0,1.657,1.343,3,3,3H86.41L71.163,80.039z"/><path d="M50,37.009c-7.168,0-13,5.832-13,13.001c0,7.167,5.832,12.999,13,12.999c7.168,0,13-5.832,13-12.999    C63,42.841,57.168,37.009,50,37.009z"/></g></g><g display="none"><rect x="5" y="5" display="inline" fill="none" stroke="#000000" stroke-width="0.02" stroke-miterlimit="10" width="90" height="90"/></g><g display="none"><path display="inline" d="M50.006,20C19.509,20,4.978,50.028,5,50.028c0,0,0.004-0.009,0.013-0.026   c0,0,13.984,29.997,44.993,29.997C78.997,80,95,50.002,95,50.002S80.997,20,50.006,20z M40,36.007h20c1.104,0,2,0.896,2,2   s-0.896,2-2,2H40c-1.104,0-2-0.896-2-2S38.896,36.007,40,36.007z M40,45.007h20c1.104,0,2,0.896,2,2s-0.896,2-2,2H40   c-1.104,0-2-0.896-2-2S38.896,45.007,40,45.007z M39.997,54.007h10c1.104,0,2,0.896,2,2s-0.896,2-2,2h-10c-1.104,0-2-0.896-2-2   S38.892,54.007,39.997,54.007z M50.006,74.007c-11,0-20.891-4.573-29.399-13.104c-4.086-4.096-7.046-8.26-8.61-10.867   c2.787-4.546,9.53-13.969,20.187-19.569C28.945,34.43,27,39.489,27,45.002c0,12.704,10.306,23.005,22.994,23.005   C62.709,68.007,73,57.707,73,45.002c0-5.546-1.963-10.633-5.233-14.605c4.113,2.148,7.999,5.06,11.633,8.701   c4.018,4.027,7.016,8.292,8.597,10.909C83.467,56.848,69.945,74.007,50.006,74.007z"/></g><g display="none"><path display="inline" d="M50.006,20C19.509,20,4.978,50.028,5,50.028c0,0,0.004-0.009,0.013-0.026   c0,0,13.984,29.997,44.993,29.997C78.997,80,95,50.002,95,50.002S80.997,20,50.006,20z M66.997,45.007c0,1.104-0.896,2-2,2h-11v-4   h11C66.101,43.007,66.997,43.903,66.997,45.007z M47.997,49.007h4v11c0,1.104-0.896,2-2,2s-2-0.896-2-2V49.007z M49.997,28.007   c1.104,0,2,0.896,2,2v11h-4v-11C47.997,28.903,48.892,28.007,49.997,28.007z M34.997,43.007h11v4h-11c-1.104,0-2-0.896-2-2   S33.892,43.007,34.997,43.007z M50.006,74.007c-11,0-20.891-4.573-29.399-13.104c-4.086-4.096-7.046-8.26-8.61-10.867   c2.787-4.546,9.53-13.969,20.187-19.569C28.945,34.43,27,39.489,27,45.002c0,12.704,10.306,23.005,22.994,23.005   C62.709,68.007,73,57.707,73,45.002c0-5.546-1.963-10.633-5.233-14.605c4.113,2.148,7.999,5.06,11.633,8.701   c4.018,4.027,7.016,8.292,8.597,10.909C83.467,56.848,69.945,74.007,50.006,74.007z"/></g><g display="none"><path display="inline" d="M17.997,23.007h20c1.104,0,2,0.896,2,2c0,1.105-0.896,2-2,2h-20c-1.104,0-2-0.895-2-2   C15.997,23.904,16.892,23.007,17.997,23.007z"/><path display="inline" d="M18.455,33.007h10c1.104,0,2,0.896,2,2c0,1.105-0.896,2-2,2h-10c-1.104,0-2-0.895-2-2   C16.455,33.904,17.35,33.007,18.455,33.007z"/><path display="inline" d="M50.997,29.028V17.007h41c1.657,0,3-1.343,3-3s-1.343-3-3-3c0,0-83.818,0-84,0c-1.657,0-3,1.343-3,3v32   c0,1.657,1.343,3,3,3h3.614C7.175,54.523,4.991,59.027,5,59.027c0,0,0.004-0.008,0.013-0.025c0,0,13.984,29.997,44.993,29.997   C78.997,88.999,95,59.001,95,59.001S81.288,29.665,50.997,29.028z M10.997,43.007v-26h34v17.988c0,4.697-4,8.011-9,8.012   C35.894,43.007,10.997,43.007,10.997,43.007z M50.006,83.006c-11,0-20.891-4.573-29.399-13.104   c-4.086-4.096-7.046-8.26-8.61-10.867c1.475-2.406,4.071-6.18,7.757-10.028H53c1.104,0,2,0.896,2,2c0,1.105-0.896,2-2,2H27.03   c-0.016,0.33-0.03,0.66-0.03,0.994c0,1.72,0.195,3.394,0.553,5.006h15.443c1.104,0,2,0.896,2,2c0,1.105-0.896,2-2,2H28.833   c3.506,8.229,11.666,13.999,21.162,13.999C62.709,77.006,73,66.706,73,54.001c0-5.546-1.963-10.633-5.233-14.605   c4.113,2.148,7.999,5.06,11.633,8.701c4.018,4.027,7.016,8.292,8.597,10.909C83.467,65.847,69.945,83.006,50.006,83.006z"/></g><g display="none"><path display="inline" d="M63.772,51.965h4.225c8.742,0,16-7.112,16-15.854c0-8.007-6.018-14.647-13.739-15.707   C67.678,11.65,59.548,5.007,50,5.007c-9.546,0-17.677,6.643-20.258,15.398c-7.72,1.06-13.746,7.699-13.746,15.707   c0,8.742,7.258,15.854,16,15.854h4.303L20.484,75.86c-1.159,1.877-2.518,6.135-0.257,10.189c3.362,6.028,12.818,8.958,28.908,8.958   c17.161,0,27.188-3.02,30.651-9.23c2.22-3.979,0.919-8.106-0.25-9.997L63.772,51.965z M22,36.112   c0-5.473,4.435-10.104,9.908-10.104c0.453,0,1.655,0,3.088,0c0.075-8.315,6.67-15,15.004-15c8.333,0,14.924,6.685,14.996,15   c1.435,0,2.643,0,3.095,0c5.473,0,9.909,4.632,9.909,10.104c0,5.472-4.531,9.909-10.004,9.909c-3.103,0-32.896,0-36,0   C26.523,46.021,22,41.583,22,36.112z M43.494,51.965h13.083l12.991,19.626c-4.913-1.667-11.719-2.513-20.404-2.513   c-7.734,0-13.889,0.742-18.457,2.203L43.494,51.965z M49.135,89.007c-18.309,0-22.633-4.08-23.642-5.834   c-1.076-1.87-0.07-3.858,0.094-4.157l0.49-0.739c1.932-2.285,7.439-5.341,23.086-5.341c18.866,0,23.964,4.003,25.324,6.39   c0.229,0.403,0.375,0.805,0.466,1.195c0.096,0.695,0.05,1.544-0.437,2.385C73.458,84.741,68.865,89.007,49.135,89.007z"/></g><g display="none"><g display="inline"><path fill="#000000" d="M88.773,39.362L53.586,8.326c-1.094-0.879-2.418-1.319-3.742-1.319c-1.333,0-2.665,0.445-3.76,1.334    L11.236,39.362c-1.395,1.133-2.205,2.833-2.205,4.629v39.043c0,3.295,2.67,5.965,5.964,5.965h22v-5.965h-22V43.992l34.849-31.02    l35.187,31.035v39.028H52.997V71.361c2.931-1.186,5.043-4.055,5.043-7.412c0-4.42-3.582-8-8-8s-8,3.58-8,8    c0,3.357,2.026,6.227,4.957,7.412v1.646v10.029V89h38.035c3.294,0,5.965-2.67,5.965-5.963v-39.03    C90.997,42.203,90.177,40.494,88.773,39.362z"/><path fill="#000000" d="M50.039,46.129c-6.133,0-11.757,3.094-15.046,8.277c-0.833,1.311-0.444,3.049,0.867,3.881    c0.468,0.297,0.989,0.438,1.505,0.438c0.931,0,1.841-0.461,2.377-1.305c2.251-3.547,6.101-5.666,10.297-5.666    c4.182,0,8.021,2.105,10.277,5.631c0.836,1.309,2.572,1.691,3.885,0.855c1.309-0.838,1.689-2.576,0.854-3.887    C61.759,49.204,56.146,46.129,50.039,46.129z"/><path fill="#000000" d="M26.4,49.042c-0.867,1.374-0.457,3.188,0.916,4.057c0.488,0.309,1.031,0.455,1.568,0.455    c0.976,0,1.93-0.484,2.49-1.371c4.071-6.444,11.048-10.292,18.664-10.292c7.583,0,14.544,3.822,18.623,10.226    c0.872,1.367,2.691,1.771,4.061,0.898c1.37-0.873,1.773-2.69,0.9-4.06c-5.164-8.107-13.98-12.947-23.583-12.947    C40.393,36.007,31.557,40.88,26.4,49.042z"/></g></g><g><g><path d="M50.013,18.122c-6.133,0-11.758,3.094-15.047,8.276c-0.832,1.311-0.443,3.049,0.867,3.881    c0.468,0.297,0.989,0.438,1.505,0.438c0.931,0,1.841-0.461,2.377-1.305c2.251-3.547,6.101-5.666,10.298-5.666    c4.181,0,8.022,2.105,10.277,5.631c0.837,1.309,2.573,1.691,3.885,0.854c1.309-0.836,1.69-2.576,0.854-3.885    C61.735,21.197,56.122,18.122,50.013,18.122z"/><path d="M27.302,25.091c0.488,0.309,1.031,0.455,1.568,0.455c0.976,0,1.93-0.484,2.49-1.371    c4.07-6.445,11.048-10.293,18.663-10.293c7.583,0,14.545,3.822,18.623,10.225c0.872,1.369,2.691,1.773,4.061,0.9    c1.37-0.873,1.773-2.69,0.9-4.061C68.444,12.839,59.627,8,50.024,8c-9.646,0-18.481,4.873-23.638,13.035    C25.519,22.408,25.929,24.224,27.302,25.091z"/><path d="M62,82h-8.043V64h36.039c0-4.977-3.966-9-9-9H53.958v-8.007c0-3,4-5,4.043-11.051c0.031-4.42-3.582-8-8.001-8    c-4.418,0-7.962,3.58-8,8c-0.043,5.051,3.957,8.051,3.957,11.051V55h-26.96c-5.033,0-9,4.023-9,9h35.96v18H38    c-2.387,0-5.004,2.316-5.004,5.008L50,92l16.996-4.992C66.997,84.316,64.386,82,62,82z"/></g></g><text x="0" y="115" fill="#000000" font-size="5px" font-weight="bold" font-family="'Helvetica Neue', Helvetica, Arial-Unicode, Arial, Sans-serif">Created by David Carrero</text><text x="0" y="120" fill="#000000" font-size="5px" font-weight="bold" font-family="'Helvetica Neue', Helvetica, Arial-Unicode, Arial, Sans-serif">from the Noun Project</text></svg>